Coordinates
version=1
nRows=11
nColumns=36
inDegrees=yes

Units are S.I. units (second, meters, Newtons, ...)
If the header above contains a line with 'inDegrees', this indicates whether rotational values are in degrees (yes) or radians (no).

endheader
time	pelvis_tilt	pelvis_list	pelvis_rotation	pelvis_tx	pelvis_ty	pelvis_tz	hip_flexion_r	hip_adduction_r	hip_rotation_r	knee_angle_r	knee_angle_r_beta	ankle_angle_r	subtalar_angle_r	mtp_angle_r	hip_flexion_l	hip_adduction_l	hip_rotation_l	knee_angle_l	knee_angle_l_beta	ankle_angle_l	subtalar_angle_l	mtp_angle_l	lumbar_extension	lumbar_bending	lumbar_rotation	arm_flex_r	arm_add_r	arm_rot_r	elbow_flex_r	pro_sup_r	arm_flex_l	arm_add_l	arm_rot_l	elbow_flex_l	pro_sup_l
      2.42916670	    -16.22342732	      2.46499992	      2.74286050	      0.38593945	      0.85797846	     -0.09567860	     46.73444627	     -1.00955537	      6.60770463	     62.41221121	      1.08929858	      1.62126994	    -27.53411846	     -7.49999987	     38.81841128	      4.84209599	      7.78815555	     58.05762834	      1.01329677	      9.19005132	    -20.01881860	     -7.49999987	    -16.80885183	      0.72419466	     -1.42592239	     33.78274329	     -9.46238643	     -0.11637123	     66.26150878	     82.98085151	     41.64046147	    -15.45443304	      4.39244673	     61.75111879	     82.33736824
      2.43333330	    -17.22597544	      2.61712798	      3.13144048	      0.38819447	      0.86140789	     -0.09327096	     47.22745963	     -1.49300796	      6.27191319	     61.27630383	      1.06947326	      0.93596952	    -27.08649736	     -7.49999987	     39.27904733	      4.96717979	      7.66753279	     56.57710203	      0.98745671	      8.23435094	    -19.50175900	     -7.49999987	    -14.42011698	      0.42907426	     -1.42530959	     36.17017544	    -10.34141430	      2.18217445	     67.59593638	     83.39572664	     44.31030238	    -16.22820293	      6.89013450	     63.84595232	     82.27835689
      2.43750000	    -17.97528969	      2.65215427	      3.31637614	      0.39269912	      0.86344053	     -0.09192593	     47.27095846	     -1.83537757	      5.65801030	     60.22481877	      1.05112138	      1.22867421	    -26.39821694	     -7.49999987	     39.22057236	      4.69353293	      7.48669683	     55.22838887	      0.96391723	      8.08615904	    -18.67590007	     -7.49999987	    -12.13652721	      0.33741520	     -1.36488074	     38.46358976	    -10.53251704	      2.56575889	     68.55907680	     82.08615414	     46.61155253	    -16.01103456	      7.19489358	     65.37801531	     80.93342459
      2.44166670	    -18.57749671	      2.65145758	      3.66389910	      0.39346355	      0.87125776	     -0.08904891	     46.89895436	     -2.02792573	      5.16301487	     58.53491857	      1.02162706	     -0.58487729	    -26.99982563	     -7.49999987	     38.96869077	      4.40641574	      7.32519273	     53.43715976	      0.93265438	      6.00287297	    -18.88995250	     -7.49999987	    -10.46394636	     -0.07777297	     -1.71997921	     41.34025039	    -11.80903833	      6.78747736	     68.96206532	     82.67232251	     49.90519032	    -17.61743117	     11.95799549	     66.99909701	     80.61533662
      2.44583330	    -18.94624059	      2.43558641	      3.61167378	      0.39563076	      0.88189393	     -0.08724579	     46.03966381	     -1.80029723	      4.78433598	     56.03715503	      0.97803286	     -1.53401817	    -26.31635713	     -7.49999987	     38.19140993	      3.68217562	      7.33131010	     51.26716003	      0.89478074	      5.15137900	    -17.40021994	     -7.49999987	     -9.32797000	     -0.21046143	     -1.84148426	     44.10416494	    -12.01266942	      8.79128176	     69.57074931	     79.94122740	     53.04061367	    -18.23460647	     14.23797373	     68.35011207	     77.52344995
      2.45000000	    -19.20943962	      2.37594931	      3.76662432	      0.40057740	      0.88516315	     -0.08796901	     45.04115811	     -1.93317263	      4.56829611	     54.03253643	      0.94304566	     -2.38230659	    -25.53114621	     -7.49999987	     37.24373531	      3.36343700	      6.98435741	     49.14363617	      0.85771826	      4.24106593	    -16.36409650	     -7.49999987	     -8.06171042	     -0.30810797	     -2.01374013	     47.39111031	    -11.40412160	     11.39662185	     69.82200687	     79.85298501	     56.11954583	    -18.59968523	     16.58971236	     69.27769867	     76.90715482
      2.45416670	    -19.31046735	      2.31905627	      3.85881873	      0.40664043	      0.89634704	     -0.08903919	     43.45033902	     -2.17952072	      4.31207866	     51.28886290	      0.89515953	     -4.01108751	    -25.17014458	     -7.49999987	     35.71413294	      3.08938747	      6.73203480	     46.45460597	      0.81078583	      2.92544718	    -15.24184870	     -7.49999987	     -7.07904143	     -0.14956474	     -1.68385038	     50.72494773	    -10.89546144	     13.38785546	     69.56942035	     79.42606891	     58.33049211	    -18.23321482	     17.79208757	     69.87258013	     76.16022183
      2.45833330	    -19.19721283	      2.20118697	      4.01110984	      0.41088427	      0.90284143	     -0.08563233	     41.89028236	     -2.21211996	      3.76783925	     49.03444547	      0.85581252	     -4.94353412	    -24.18262961	     -7.49999987	     34.15912112	      2.56544444	      6.55240781	     43.90047147	      0.76620777	      1.52167196	    -13.80619548	     -7.49999987	     -6.07972372	     -0.04880298	     -1.19841686	     53.32056376	    -10.17417839	     14.98190874	     69.78002271	     79.64712457	     59.86725173	    -17.71212672	     18.31753089	     71.10326018	     75.90127728
      2.46250000	    -19.21961900	      2.07349594	      4.33738658	      0.41554666	      0.91685470	     -0.08698899	     40.13571455	     -2.47312383	      3.13330355	     46.15262808	      0.80551532	     -7.42747376	    -23.99118445	     -7.49999987	     32.41366721	      2.27539158	      6.35090258	     40.33410348	      0.70396291	     -0.83705548	    -12.96580929	     -7.49999987	     -4.92724147	      0.33776143	     -0.87833207	     55.68712367	    -10.06156641	     15.86727338	     69.92342624	     79.30905426	     61.59716982	    -16.55450680	     18.64596978	     71.53013513	     75.43627702
      2.46666670	    -18.74694407	      1.93356439	      4.47158529	      0.41704614	      0.91998153	     -0.08680846	     38.38885717	     -2.58393220	      2.51003333	     43.98002946	      0.76759632	     -8.82145072	    -23.73781258	     -7.49999987	     30.58299981	      1.86333438	      5.92492520	     37.64663899	      0.65705780	     -2.67947350	    -11.93859080	     -7.49999987	     -4.59687411	      0.69534795	     -0.76298046	     58.72435937	    -11.09693242	     16.82141664	     70.70486699	     79.61139459	     64.68913327	    -16.49370519	     20.01136487	     71.99384081	     75.48682603
      2.47083330	    -18.75095274	      2.06575590	      4.36517717	      0.42149818	      0.92441647	     -0.08771733	     37.41375285	     -2.95578883	      1.80493417	     42.31600366	      0.73855359	    -10.20813164	    -23.43527668	     -7.49999987	     29.43280529	      1.74170608	      5.54634026	     35.64241180	      0.62207744	     -4.01724445	    -10.81329707	     -7.49999987	     -3.70839730	      0.44750247	     -1.16722532	     60.88658676	    -12.22078723	     18.04696601	     72.71883676	     79.26321010	     68.51678523	    -17.57731095	     23.31384265	     73.03910202	     74.84573449
